<?xml version="1.0" encoding="UTF-8" standalone="no"?>
<!-- Created with Inkscape (http://www.inkscape.org/) -->

<svg
   version="1.1"
   id="svg824"
   width="532.80347"
   height="168.57477"
   viewBox="0 0 532.80347 168.57476"
   sodipodi:docname="apl2_at_a_glance.svg"
   inkscape:version="1.1.2 (0a00cf5339, 2022-02-04)"
   xmlns:inkscape="http://www.inkscape.org/namespaces/inkscape"
   xmlns:sodipodi="http://sodipodi.sourceforge.net/DTD/sodipodi-0.dtd"
   xmlns:xlink="http://www.w3.org/1999/xlink"
   xmlns="http://www.w3.org/2000/svg"
   xmlns:svg="http://www.w3.org/2000/svg">
  <defs
     id="defs828">
    <rect
       x="178.72874"
       y="214.23524"
       width="89.568161"
       height="65.930962"
       id="rect19912" />
    <rect
       x="128.31133"
       y="255.22186"
       width="414.98874"
       height="73.871765"
       id="rect4764" />
    <rect
       x="178.72874"
       y="214.23524"
       width="89.568161"
       height="65.930962"
       id="rect24052" />
    <rect
       x="178.72874"
       y="214.23524"
       width="258.24557"
       height="60.9548"
       id="rect26678" />
  </defs>
  <sodipodi:namedview
     id="namedview826"
     pagecolor="#505050"
     bordercolor="#eeeeee"
     borderopacity="1"
     inkscape:pageshadow="0"
     inkscape:pageopacity="0"
     inkscape:pagecheckerboard="0"
     showgrid="false"
     inkscape:zoom="1.8967926"
     inkscape:cx="290.75398"
     inkscape:cy="46.921313"
     inkscape:window-width="1920"
     inkscape:window-height="1003"
     inkscape:window-x="0"
     inkscape:window-y="0"
     inkscape:window-maximized="1"
     inkscape:current-layer="layer1"
     showguides="true"
     inkscape:guide-bbox="true"
     inkscape:snap-to-guides="true"
     inkscape:snap-grids="true"
     inkscape:snap-global="true" />
  <g
     inkscape:groupmode="layer"
     id="layer1"
     inkscape:label="vector"
     style="display:inline"
     transform="translate(-116.24055,-94.107719)">
    <g
       id="g14228"
       transform="rotate(13.83,333.33334,446)">
      <g
         id="g955"
         style="display:inline;fill:#000000;fill-opacity:1;stroke:#000000;stroke-width:4.5;stroke-linejoin:miter;stroke-miterlimit:4;stroke-dasharray:none;stroke-opacity:1;paint-order:markers stroke fill"
         transform="translate(12.661956,8.1515002)">
        <path
           id="path947"
           style="fill:#000000;fill-opacity:1;fill-rule:evenodd;stroke:#000000;stroke-width:4.5;stroke-linecap:round;stroke-linejoin:miter;stroke-miterlimit:4;stroke-dasharray:none;stroke-opacity:1;paint-order:markers stroke fill"
           d="m 158.39062,139.95117 -45.72656,11.25586 -40.525388,106.00391 31.485258,-7.75065 6.34766,-18.89062 48.82724,-12.01889 6.59961,15.70117 31.41211,-7.73242 z m -24.47822,19.38858 17.1501,40.80673 -33.6495,8.28256 z"
           sodipodi:nodetypes="ccccccccccccc" />
        <path
           id="path949"
           style="opacity:1;fill:#000000;fill-opacity:1;stroke:#000000;stroke-width:4.5;stroke-linecap:round;stroke-linejoin:miter;stroke-miterlimit:4;stroke-dasharray:none;stroke-dashoffset:0;stroke-opacity:1;paint-order:markers stroke fill"
           d="m 294.67383,105.12891 c -5.59855,-0.0951 -12.26236,0.69338 -20.14844,2.63476 l -61.33594,15.09961 v 99.625 l 32.21875,-7.93164 v -35.17383 c 0,0 0,0 27.7793,-6.83789 39.19042,-9.64674 47.89258,-31.15128 47.89258,-44.79883 0,-10.66215 -6.41144,-22.27748 -26.40625,-22.61718 z m -18.96485,23.57031 c 6.61102,-0.0724 9.28125,2.59228 9.28125,7.93164 0,7.76634 -6.52157,15.2524 -20.30859,18.64648 -13.78702,3.39407 -19.27344,4.74414 -19.27344,4.74414 v -24.9121 c 0,0 3.51518,-0.86562 18.72266,-4.60938 4.75234,-1.16993 8.57312,-1.76787 11.57812,-1.80078 z"
           sodipodi:nodetypes="ssccccssssssccss" />
        <path
           style="fill:#000000;fill-opacity:1;stroke:#000000;stroke-width:4.5;stroke-linecap:round;stroke-linejoin:miter;stroke-miterlimit:4;stroke-dasharray:none;stroke-opacity:1;paint-order:markers stroke fill"
           d="M 337.47752,191.89049 V 92.266401 l 32.06846,-7.894575 v 76.683844 l 53.12034,-13.0771 v 22.94024 z"
           id="path951"
           sodipodi:nodetypes="ccccccc" />
        <path
           style="fill:#000000;fill-opacity:1;stroke:#000000;stroke-width:4.5;stroke-linecap:round;stroke-linejoin:miter;stroke-miterlimit:4;stroke-dasharray:none;stroke-opacity:1;paint-order:markers stroke fill"
           d="M 443.06856,165.89621 V 144.3391 c 39.28374,-18.91503 69.26661,-44.548617 69.26661,-66.864615 0,-8.07706 -6.99231,-11.923534 -15.83791,-9.745934 -10.30498,2.536869 -15.81637,7.119277 -18.53994,21.397376 l -34.88876,8.588872 c 0,-31.442677 38.64314,-46.006539 54.52431,-49.916147 30.48377,-7.504459 53.9485,-1.993523 53.9485,19.588775 0,17.271222 -6.35004,30.442848 -61.54218,65.398343 l 53.30088,-13.12155 v 21.55711 z"
           id="path953"
           sodipodi:nodetypes="ccssccsscccc" />
      </g>
      <g
         id="g6739"
         style="display:inline;fill:#e23300;fill-opacity:1;stroke:#000000;stroke-width:9;stroke-linejoin:miter;stroke-miterlimit:4;stroke-dasharray:none;stroke-opacity:1;paint-order:markers stroke fill">
        <path
           id="path7062"
           style="fill:#e23300;fill-opacity:1;fill-rule:evenodd;stroke:#000000;stroke-width:9;stroke-linecap:round;stroke-linejoin:miter;stroke-miterlimit:4;stroke-dasharray:none;stroke-opacity:1;paint-order:markers stroke fill"
           d="m 158.39062,139.95117 -45.72656,11.25586 -40.525388,106.00391 31.485258,-7.75065 6.34766,-18.89062 48.82724,-12.01889 6.59961,15.70117 31.41211,-7.73242 z m -24.47822,19.38858 17.1501,40.80673 -33.6495,8.28256 z"
           sodipodi:nodetypes="ccccccccccccc" />
        <path
           id="path1013"
           style="opacity:1;fill:#e23300;fill-opacity:1;stroke:#000000;stroke-width:9;stroke-linecap:round;stroke-linejoin:miter;stroke-miterlimit:4;stroke-dasharray:none;stroke-dashoffset:0;stroke-opacity:1;paint-order:markers stroke fill"
           d="m 294.67383,105.12891 c -5.59855,-0.0951 -12.26236,0.69338 -20.14844,2.63476 l -61.33594,15.09961 v 99.625 l 32.21875,-7.93164 v -35.17383 c 0,0 0,0 27.7793,-6.83789 39.19042,-9.64674 47.89258,-31.15128 47.89258,-44.79883 0,-10.66215 -6.41144,-22.27748 -26.40625,-22.61718 z m -18.96485,23.57031 c 6.61102,-0.0724 9.28125,2.59228 9.28125,7.93164 0,7.76634 -6.52157,15.2524 -20.30859,18.64648 -13.78702,3.39407 -19.27344,4.74414 -19.27344,4.74414 v -24.9121 c 0,0 3.51518,-0.86562 18.72266,-4.60938 4.75234,-1.16993 8.57312,-1.76787 11.57812,-1.80078 z"
           sodipodi:nodetypes="ssccccssssssccss" />
        <path
           style="fill:#e23300;fill-opacity:1;stroke:#000000;stroke-width:9;stroke-linecap:round;stroke-linejoin:miter;stroke-miterlimit:4;stroke-dasharray:none;stroke-opacity:1;paint-order:markers stroke fill"
           d="M 337.47752,191.89049 V 92.266401 l 32.06846,-7.894575 v 76.683844 l 53.12034,-13.0771 v 22.94024 z"
           id="path3219"
           sodipodi:nodetypes="ccccccc" />
        <path
           style="fill:#ff8845;fill-opacity:1;stroke:#000000;stroke-width:9;stroke-linecap:round;stroke-linejoin:miter;stroke-miterlimit:4;stroke-dasharray:none;stroke-opacity:1;paint-order:markers stroke fill"
           d="M 443.06856,165.89621 V 144.3391 c 39.28374,-18.91503 69.26661,-44.548617 69.26661,-66.864615 0,-8.07706 -6.99231,-11.923534 -15.83791,-9.745934 -10.30498,2.536869 -15.81637,7.119277 -18.53994,21.397376 l -34.88876,8.588872 c 0,-31.442677 38.64314,-46.006539 54.52431,-49.916147 30.48377,-7.504459 53.9485,-1.993523 53.9485,19.588775 0,17.271222 -6.35004,30.442848 -61.54218,65.398343 l 53.30088,-13.12155 v 21.55711 z"
           id="path3221"
           sodipodi:nodetypes="ccssccsscccc" />
      </g>
    </g>
    <g
       id="g34731"
       style="display:inline;fill:#000000;fill-opacity:1;stroke:#020000;stroke-width:2.7;stroke-miterlimit:4;stroke-dasharray:none;stroke-opacity:1">
      <g
         aria-label="AT"
         transform="matrix(0.99966565,0,0,0.94788272,5.1696218,11.324491)"
         id="text19910"
         style="font-style:italic;font-weight:bold;font-size:53.3333px;line-height:1.25;font-family:'Nimbus Sans';-inkscape-font-specification:'Nimbus Sans, Bold Italic';font-variant-ligatures:none;letter-spacing:0px;word-spacing:0px;white-space:pre;shape-inside:url(#rect19912);fill:#000000;fill-opacity:1;stroke:#020000;stroke-width:2.7737;stroke-miterlimit:4;stroke-dasharray:none;stroke-opacity:1">
        <path
           d="m 207.74982,256.05676 0.83042,6.55805 h 8.54816 l -5.41942,-38.82931 h -9.66556 l -22.73922,38.82931 h 8.54816 l 3.76793,-6.55805 z m -0.58186,-4.59501 h -12.9076 l 10.57657,-18.40835 z"
           id="path35328"
           style="fill:#000000;fill-opacity:1;stroke:#020000;stroke-width:2.7737;stroke-miterlimit:4;stroke-dasharray:none;stroke-opacity:1"
           sodipodi:nodetypes="ccccccccccccc" />
        <path
           d="m 239.66639,231.52895 h 11.30666 l 1.67539,-7.76878 h -31.14665 l -1.67539,7.76878 h 11.84 l -6.64461,31.11119 h 8 z"
           id="path35330"
           sodipodi:nodetypes="ccccccccc"
           style="fill:#000000;fill-opacity:1;stroke:#020000;stroke-width:2.7737;stroke-miterlimit:4;stroke-dasharray:none;stroke-opacity:1" />
        <use
           x="0"
           y="0"
           xlink:href="#path35328"
           id="use38239"
           width="100%"
           height="100%"
           transform="translate(91.066552)"
           style="fill:#000000;fill-opacity:1;stroke:#020000;stroke-width:2.7737;stroke-miterlimit:4;stroke-dasharray:none;stroke-opacity:1" />
      </g>
      <g
         aria-label="GLANCE"
         transform="matrix(1.0671053,0,0,0.94649792,141.04304,11.66168)"
         id="text26676"
         style="font-style:italic;font-weight:bold;font-size:53.3333px;line-height:1.25;font-family:'Nimbus Sans';-inkscape-font-specification:'Nimbus Sans, Bold Italic';font-variant-ligatures:none;letter-spacing:0px;word-spacing:0px;white-space:pre;shape-inside:url(#rect26678);display:inline;fill:#000000;fill-opacity:1;stroke:#020000;stroke-width:2.68658;stroke-miterlimit:4;stroke-dasharray:none;stroke-opacity:1">
        <path
           d="m 221.20482,241.73349 h -12.14865 l -1.15774,5.69981 h 4.8192 c -1.28877,6.34486 -4.87855,8.8096 -9.73058,8.8096 -4.96513,0 -8.20275,-4.43731 -8.20275,-9.98397 0,-3.78667 1.01535,-7.84275 2.82086,-10.77608 2.40732,-4 5.13312,-6.46125 9.39612,-6.46125 3.95696,0 6.48298,2.2259 6.93863,5.1236 l 7.18829,-10e-6 c 0,-6.77333 -5.46666,-11.30666 -13.64158,-11.30666 -6.21895,0 -11.01092,1.96255 -15.12347,7.02922 -3.91191,4.85333 -5.66349,12.61241 -5.66349,18.79907 0,7.55399 3.82158,15.19999 12.65259,15.19999 4.66422,0 10.11024,-3.92564 13.82156,-8.13897 l -0.69558,7.01897 h 4.51375 z"
           id="path35336"
           sodipodi:nodetypes="cccccscsccsccccccc"
           style="fill:#000000;fill-opacity:1;stroke:#020000;stroke-width:2.68658;stroke-miterlimit:4;stroke-dasharray:none;stroke-opacity:1" />
        <path
           d="m 240.75514,223.76017 h -8 l -8.26666,38.87997 h 25.55854 l 1.68652,-7.90058 H 234.175 Z"
           id="path35338"
           sodipodi:nodetypes="ccccccc"
           style="fill:#000000;fill-opacity:1;stroke:#020000;stroke-width:2.68658;stroke-miterlimit:4;stroke-dasharray:none;stroke-opacity:1" />
        <use
           x="0"
           y="0"
           xlink:href="#path35328"
           id="use38241"
           width="100%"
           height="100%"
           transform="translate(75.116647)"
           style="fill:#000000;fill-opacity:1;stroke:#020000;stroke-width:2.68658;stroke-miterlimit:4;stroke-dasharray:none;stroke-opacity:1" />
        <path
           d="m 334.81162,223.73532 h -7.60836 l -5.97327,28.22664 -8.28199,-28.22664 h -8.98959 l -7.87477,38.92967 h 8.72833 l 5.47343,-27.15733 7.97087,27.15733 h 8.68059 z"
           id="path35342"
           style="fill:#000000;fill-opacity:1;stroke:#020000;stroke-width:2.68658;stroke-miterlimit:4;stroke-dasharray:none;stroke-opacity:1"
           sodipodi:nodetypes="ccccccccccc" />
        <path
           d="m 370.99244,235.47032 c 0.0492,-9.48127 -5.8093,-12.31667 -12.42399,-12.35015 -15.26349,0 -22.71892,9.55174 -22.71892,26.98318 0,9.72037 6.74219,13.71061 14.66559,13.76346 9.70666,0 16.51106,-4.94934 18.85773,-14.06934 h -7.62666 c -1.54667,4.90666 -5.00641,7.3058 -10.14923,7.3058 -4.22617,0 -7.13318,-4.18481 -7.20058,-8.84439 0,-4.42666 1.24176,-10.38035 3.64176,-14.11368 2.50666,-3.94667 4.56337,-5.53844 8.88336,-5.53844 3.88488,0.0761 6.89464,3.51263 6.55095,6.86356 z"
           id="path35344"
           sodipodi:nodetypes="ccscccsccccc"
           style="fill:#000000;fill-opacity:1;stroke:#020000;stroke-width:2.68658;stroke-miterlimit:4;stroke-dasharray:none;stroke-opacity:1" />
        <path
           d="m 384.98473,245.89349 h 18.20169 l 1.35599,-6.66667 h -18.20168 l 1.82539,-8.79999 h 19.71414 l 1.40815,-6.66666 h -27.53722 l -8.08384,38.87997 h 28.42384 l 1.40815,-6.66666 h -20.60077 z"
           id="path35346"
           style="fill:#000000;fill-opacity:1;stroke:#020000;stroke-width:2.68658;stroke-miterlimit:4;stroke-dasharray:none;stroke-opacity:1" />
      </g>
    </g>
  </g>
</svg>
