<?xml version="1.0" encoding="UTF-8" standalone="no"?>
<!-- Created with Inkscape (http://www.inkscape.org/) -->

<svg
   width="88.900002mm"
   height="43.962574mm"
   viewBox="0 0 88.900003 43.962574"
   version="1.1"
   id="svg5"
   sodipodi:docname="cocksuckingfaggot.svg"
   inkscape:version="1.1.2 (0a00cf5339, 2022-02-04, custom)"
   xmlns:inkscape="http://www.inkscape.org/namespaces/inkscape"
   xmlns:sodipodi="http://sodipodi.sourceforge.net/DTD/sodipodi-0.dtd"
   xmlns="http://www.w3.org/2000/svg"
   xmlns:svg="http://www.w3.org/2000/svg">
  <sodipodi:namedview
     id="namedview7"
     pagecolor="#555555"
     bordercolor="#eeeeee"
     borderopacity="1"
     inkscape:pageshadow="0"
     inkscape:pageopacity="0"
     inkscape:pagecheckerboard="0"
     inkscape:document-units="mm"
     showgrid="false"
     inkscape:snap-text-baseline="false"
     inkscape:zoom="2.4879674"
     inkscape:cx="169.61637"
     inkscape:cy="92.645908"
     inkscape:window-width="1533"
     inkscape:window-height="932"
     inkscape:window-x="323"
     inkscape:window-y="48"
     inkscape:window-maximized="0"
     inkscape:current-layer="layer1" />
  <defs
     id="defs2" />
  <g
     inkscape:label="Layer 1"
     inkscape:groupmode="layer"
     id="layer1"
     transform="translate(-31.967442,-22.159872)"
     style="display:inline">
    <rect
       style="display:inline;opacity:1;vector-effect:none;fill:#00ff7c;fill-opacity:1;fill-rule:evenodd;stroke:none;stroke-width:0.700059;stroke-linecap:butt;stroke-linejoin:miter;stroke-miterlimit:4;stroke-dasharray:none;stroke-dashoffset:0;stroke-opacity:1"
       id="rect35341"
       width="88.900002"
       height="43.962574"
       x="31.967442"
       y="22.159872" />
    <path
       style="opacity:1;fill:none;fill-opacity:1;stroke:#000000;stroke-width:2.70055;stroke-linecap:square;stroke-linejoin:miter;stroke-miterlimit:4;stroke-dasharray:none;stroke-dashoffset:0;stroke-opacity:1"
       d="M 35.804575,25.641768 H 117.01986"
       id="path1290" />
    <path
       style="fill:none;fill-opacity:1;stroke:#000000;stroke-width:2.70055;stroke-linecap:square;stroke-linejoin:miter;stroke-miterlimit:4;stroke-dasharray:none;stroke-dashoffset:0;stroke-opacity:1"
       d="M 35.804575,52.458898 H 117.01986"
       id="path1290-7" />
    <path
       style="fill:none;fill-opacity:1;stroke:#000000;stroke-width:2.70055;stroke-linecap:square;stroke-linejoin:miter;stroke-miterlimit:4;stroke-dasharray:none;stroke-dashoffset:0;stroke-opacity:1"
       d="M 35.804575,63.245002 H 117.01986"
       id="path1290-5" />
    <g
       aria-label="COCK SUCKING"
       transform="scale(1.2482294,0.80113479)"
       id="text5881"
       style="font-style:italic;font-weight:bold;font-size:11.0977px;line-height:1.25;font-family:'Nimbus Sans';-inkscape-font-specification:'Nimbus Sans, Bold Italic';font-variant-ligatures:none;letter-spacing:0px;word-spacing:0px;stroke-width:0.462403">
      <path
         d="m 33.61623,39.786058 h -2.275896 v -1.522683 q 0,-0.688187 -0.07586,-0.845332 -0.0867,-0.151727 -0.325128,-0.151727 -0.287196,0 -0.352222,0.200496 -0.0867,0.205914 -0.0867,0.861589 v 4.074937 q 0,0.633999 0.0867,0.834495 0.06503,0.195077 0.330547,0.195077 0.265521,0 0.346803,-0.195077 0.07586,-0.173402 0.07586,-0.910358 v -1.100017 h 2.275896 v 0.330547 q 0,1.3547 -0.189658,1.934511 -0.195077,0.558137 -0.85617,0.997059 -0.644837,0.433504 -1.620221,0.433504 -0.997059,0 -1.652734,-0.368478 -0.655674,-0.368478 -0.861589,-1.007897 -0.211333,-0.62858 -0.211333,-1.929092 v -2.568511 q 0,-0.932033 0.06503,-1.419725 0.05961,-0.455179 0.390153,-0.910358 0.319709,-0.449761 0.899521,-0.699025 0.558136,-0.243846 1.30593,-0.243846 1.007897,0 1.663572,0.390153 0.666512,0.390154 0.85617,0.964546 0.211333,0.563556 0.211333,1.820717 z"
         style="font-style:normal;font-weight:normal;font-stretch:condensed;font-family:Impact;-inkscape-font-specification:'Impact Condensed'"
         id="path1207" />
      <path
         d="m 39.641934,41.091988 q 0,0.666513 -0.01084,1.094598 -0.01084,0.428085 -0.04335,0.780307 -0.06503,0.54188 -0.384734,1.013315 -0.325128,0.438923 -0.888683,0.699025 -0.552718,0.243846 -1.300512,0.243846 -0.704444,0 -1.26258,-0.233008 -0.558137,-0.233008 -0.899521,-0.688188 -0.346803,-0.471435 -0.411829,-1.013315 -0.06502,-0.54188 -0.06502,-1.89658 V 39.5964 q 0,-1.327606 0.06502,-1.874904 0.04877,-0.536462 0.390154,-1.002478 0.31429,-0.444342 0.883264,-0.699025 0.552718,-0.243846 1.300512,-0.243846 0.671931,0 1.267999,0.222171 0.574393,0.238427 0.894102,0.699025 0.352222,0.460597 0.400991,1.002477 0.06502,0.54188 0.06502,1.89658 z m -2.270476,-2.871963 q 0,-0.628581 -0.07044,-0.791145 -0.06502,-0.162564 -0.276359,-0.162564 -0.184239,0 -0.265521,0.130052 -0.108376,0.146307 -0.108376,0.823657 v 4.096612 q 0,0.769469 0.07586,0.942871 0.04877,0.173402 0.276358,0.173402 0.233009,0 0.298034,-0.211334 0.07044,-0.189658 0.07044,-0.975383 z"
         style="font-style:normal;font-weight:normal;font-stretch:condensed;font-family:Impact;-inkscape-font-specification:'Impact Condensed'"
         id="path1209" />
      <path
         d="m 45.824783,39.786058 h -2.275895 v -1.522683 q 0,-0.688187 -0.07586,-0.845332 -0.0867,-0.151727 -0.325128,-0.151727 -0.287197,0 -0.352222,0.200496 -0.0867,0.205914 -0.0867,0.861589 v 4.074937 q 0,0.633999 0.0867,0.834495 0.06502,0.195077 0.330546,0.195077 0.265522,0 0.346804,-0.195077 0.07586,-0.173402 0.07586,-0.910358 v -1.100017 h 2.275895 v 0.330547 q 0,1.3547 -0.189658,1.934511 -0.195076,0.558137 -0.85617,0.997059 -0.644837,0.433504 -1.620221,0.433504 -0.997059,0 -1.652733,-0.368478 -0.655675,-0.368478 -0.861589,-1.007897 -0.211334,-0.62858 -0.211334,-1.929092 v -2.568511 q 0,-0.932033 0.06503,-1.419725 0.05961,-0.455179 0.390154,-0.910358 0.319709,-0.449761 0.89952,-0.699025 0.558136,-0.243846 1.305931,-0.243846 1.007896,0 1.663571,0.390153 0.666512,0.390154 0.85617,0.964546 0.211333,0.563556 0.211333,1.820717 z"
         style="font-style:normal;font-weight:normal;font-stretch:condensed;font-family:Impact;-inkscape-font-specification:'Impact Condensed'"
         id="path1211" />
      <path
         d="m 52.083496,35.954967 -1.30593,3.961142 1.430563,4.817312 H 49.85637 l -0.932033,-3.760646 v 3.760646 h -2.275896 v -8.778454 h 2.275896 v 3.419262 l 1.018734,-3.419262 z"
         style="font-style:normal;font-weight:normal;font-stretch:condensed;font-family:Impact;-inkscape-font-specification:'Impact Condensed'"
         id="path1213" />
      <path
         d="m 59.398874,38.621016 h -2.11875 v -0.655674 q 0,-0.45518 -0.09212,-0.579812 -0.0867,-0.119214 -0.265521,-0.119214 -0.211333,0 -0.308871,0.162564 -0.113795,0.167983 -0.113795,0.514786 0,0.417248 0.124632,0.655675 0.124633,0.233008 0.644837,0.54188 1.522683,0.89952 1.918255,1.473913 0.390154,0.596068 0.390154,1.874905 0,0.926614 -0.211334,1.376375 -0.216752,0.444341 -0.85617,0.742375 -0.612324,0.31429 -1.452238,0.31429 -0.899521,0 -1.566033,-0.35764 -0.655674,-0.352222 -0.85617,-0.877846 -0.200496,-0.558136 -0.200496,-1.517264 v -0.579811 h 2.12417 v 1.067503 q 0,0.471436 0.0867,0.634 0.07586,0.140889 0.31971,0.140889 0.238427,0 0.346803,-0.173402 0.09754,-0.184239 0.09754,-0.536461 0,-0.780307 -0.211333,-1.007897 -0.200496,-0.238427 -1.062085,-0.801982 -0.834495,-0.547299 -1.121691,-0.818239 -0.27094,-0.238427 -0.460598,-0.693606 -0.184239,-0.460598 -0.184239,-1.159623 0,-0.99164 0.254683,-1.473913 0.249265,-0.471436 0.834495,-0.736957 0.612325,-0.254683 1.387213,-0.254683 0.287196,0 0.552717,0.03251 0.27094,0.03251 0.525624,0.102957 0.254683,0.07044 0.438923,0.157145 0.617743,0.276359 0.823657,0.7207 0.200496,0.422666 0.200496,1.473913 z"
         style="font-style:normal;font-weight:normal;font-stretch:condensed;font-family:Impact;-inkscape-font-specification:'Impact Condensed'"
         id="path1215" />
      <path
         d="m 65.478769,35.954967 v 5.868559 q 0,0.997059 -0.06503,1.39805 -0.04877,0.390154 -0.379316,0.823658 -0.303453,0.428085 -0.839914,0.655675 -0.547298,0.22217 -1.235486,0.22217 -0.774888,0 -1.387212,-0.265521 -0.596068,-0.254683 -0.894102,-0.67735 -0.308872,-0.428085 -0.357641,-0.877845 -0.05419,-0.514786 -0.05419,-1.956187 v -5.191209 h 2.275896 v 6.578422 q 0,0.590649 0.07586,0.736957 0.04877,0.162564 0.243846,0.162564 0.227589,0 0.276359,-0.173402 0.07044,-0.200496 0.07044,-0.834495 v -6.470046 z"
         style="font-style:normal;font-weight:normal;font-stretch:condensed;font-family:Impact;-inkscape-font-specification:'Impact Condensed'"
         id="path1217" />
      <path
         d="m 71.69413,39.786058 h -2.275896 v -1.522683 q 0,-0.688187 -0.07586,-0.845332 -0.0867,-0.151727 -0.325128,-0.151727 -0.287196,0 -0.352222,0.200496 -0.0867,0.205914 -0.0867,0.861589 v 4.074937 q 0,0.633999 0.0867,0.834495 0.06503,0.195077 0.330547,0.195077 0.265521,0 0.346803,-0.195077 0.07586,-0.173402 0.07586,-0.910358 v -1.100017 h 2.275896 v 0.330547 q 0,1.3547 -0.189658,1.934511 -0.195077,0.558137 -0.85617,0.997059 -0.644837,0.433504 -1.620221,0.433504 -0.997059,0 -1.652734,-0.368478 -0.655674,-0.368478 -0.861589,-1.007897 -0.211333,-0.62858 -0.211333,-1.929092 v -2.568511 q 0,-0.932033 0.06503,-1.419725 0.05961,-0.455179 0.390153,-0.910358 0.319709,-0.449761 0.899521,-0.699025 0.558136,-0.243846 1.30593,-0.243846 1.007897,0 1.663572,0.390153 0.666512,0.390154 0.85617,0.964546 0.211333,0.563556 0.211333,1.820717 z"
         style="font-style:normal;font-weight:normal;font-stretch:condensed;font-family:Impact;-inkscape-font-specification:'Impact Condensed'"
         id="path1219" />
      <path
         d="m 77.952843,35.954967 -1.30593,3.961142 1.430562,4.817312 h -2.351758 l -0.932034,-3.760646 v 3.760646 h -2.275895 v -8.778454 h 2.275895 v 3.419262 l 1.018735,-3.419262 z"
         style="font-style:normal;font-weight:normal;font-stretch:condensed;font-family:Impact;-inkscape-font-specification:'Impact Condensed'"
         id="path1221" />
      <path
         d="m 80.754361,35.954967 v 8.778454 h -2.275895 v -8.778454 z"
         style="font-style:normal;font-weight:normal;font-stretch:condensed;font-family:Impact;-inkscape-font-specification:'Impact Condensed'"
         id="path1223" />
      <path
         d="m 86.769227,35.954967 v 8.778454 H 84.76969 l -1.186717,-3.982817 v 3.982817 h -1.907417 v -8.778454 h 1.907417 l 1.278837,3.950305 v -3.950305 z"
         style="font-style:normal;font-weight:normal;font-stretch:condensed;font-family:Impact;-inkscape-font-specification:'Impact Condensed'"
         id="path1225" />
      <path
         d="m 92.9304,39.184571 h -2.275895 v -0.785726 q -0.01626,-0.785725 -0.08128,-0.942871 -0.06503,-0.189658 -0.308872,-0.189658 -0.211333,0 -0.276358,0.151727 -0.0867,0.184239 -0.0867,0.845332 v 4.204988 q 0,0.579812 0.0867,0.780307 0.06502,0.18424 0.298034,0.18424 0.243846,0 0.346803,-0.211334 0.0867,-0.227589 0.0867,-0.818238 V 41.35751 H 90.253514 V 40.029904 H 92.9304 v 4.703517 h -1.435981 l -0.222171,-0.633999 q -0.222171,0.40641 -0.574393,0.617743 -0.352222,0.205914 -0.845332,0.205914 -0.558137,0 -1.072922,-0.287196 -0.509368,-0.287196 -0.76947,-0.688188 -0.260102,-0.44976 -0.319709,-0.867007 -0.06503,-0.444342 -0.06503,-1.3547 v -2.606442 q 0,-1.257162 0.130052,-1.820717 0.151726,-0.579811 0.791144,-1.056666 0.222171,-0.162563 0.471436,-0.260102 0.254683,-0.102957 0.536461,-0.151726 0.287196,-0.05419 0.644837,-0.05419 1.002478,0 1.663571,0.411828 0.661094,0.411829 0.867008,0.975384 0.200495,0.585231 0.200495,1.641896 z"
         style="font-style:normal;font-weight:normal;font-stretch:condensed;font-family:Impact;-inkscape-font-specification:'Impact Condensed'"
         id="path1227" />
    </g>
    <text
       xml:space="preserve"
       style="font-style:italic;font-weight:bold;font-size:8.89079px;line-height:1.25;font-family:'Nimbus Sans';-inkscape-font-specification:'Nimbus Sans, Bold Italic';font-variant-ligatures:none;letter-spacing:0px;word-spacing:0px;stroke-width:0.370448"
       x="40.204273"
       y="43.76741"
       id="text14173"><tspan
         sodipodi:role="line"
         id="tspan14171"
         style="stroke-width:0.370448"
         x="40.204273"
         y="43.76741" /></text>
    <text
       xml:space="preserve"
       style="font-style:italic;font-weight:bold;font-size:8.89079px;line-height:1.25;font-family:'Nimbus Sans';-inkscape-font-specification:'Nimbus Sans, Bold Italic';font-variant-ligatures:none;letter-spacing:0px;word-spacing:0px;stroke-width:0.370448"
       x="36.216389"
       y="39.597847"
       id="text17945"><tspan
         sodipodi:role="line"
         id="tspan17943"
         style="stroke-width:0.370448"
         x="36.216389"
         y="39.597847" /></text>
    <g
       aria-label="FAGGOT"
       transform="scale(1.2803696,0.78102447)"
       id="text19481"
       style="font-size:17.31px;line-height:1.25;font-family:Impact;-inkscape-font-specification:'Impact, Normal';font-variant-ligatures:none;letter-spacing:2.07451px;word-spacing:0px;stroke-width:0.721254">
      <path
         d="m 28.438218,49.094848 h 6.026381 v 2.738496 H 31.98812 v 2.59481 h 2.214463 v 2.594809 H 31.98812 v 5.747461 h -3.549902 z"
         id="path1230" />
      <path
         d="m 43.54594,49.077944 2.028516,13.69248 h -3.634424 l -0.177495,-2.459575 h -1.276275 l -0.211303,2.459575 h -3.685137 l 1.817212,-13.69248 z m -1.884829,8.807138 q -0.135234,-1.149492 -0.245112,-2.231367 -0.101426,-1.090327 -0.295825,-3.507641 -0.321182,2.332793 -0.456416,3.524545 -0.135235,1.183301 -0.219756,2.214463 z"
         id="path1232" />
      <path
         d="m 56.4392,54.115424 h -3.549902 v -1.225561 q -0.02536,-1.225562 -0.126783,-1.470674 -0.101425,-0.295825 -0.481772,-0.295825 -0.329634,0 -0.43106,0.23666 -0.135234,0.287373 -0.135234,1.318535 v 6.558867 q 0,0.90438 0.135234,1.217109 0.101426,0.287373 0.464869,0.287373 0.380346,0 0.540937,-0.329633 0.135234,-0.354991 0.135234,-1.276275 V 57.504736 H 52.263839 V 55.433959 H 56.4392 v 7.336465 h -2.239819 l -0.346538,-0.988901 q -0.346539,0.633911 -0.895928,0.963544 -0.54939,0.321182 -1.318535,0.321182 -0.870572,0 -1.673526,-0.447964 -0.794502,-0.447964 -1.200205,-1.073423 -0.405703,-0.701528 -0.498676,-1.352343 -0.101426,-0.693076 -0.101426,-2.113037 v -4.065484 q 0,-1.960898 0.202851,-2.839921 0.236661,-0.90438 1.234014,-1.648169 0.346538,-0.253565 0.735337,-0.405703 0.397251,-0.160591 0.836763,-0.236661 0.447963,-0.08452 1.005805,-0.08452 1.563648,0 2.59481,0.642363 1.031162,0.642363 1.352343,1.521387 0.31273,0.912832 0.31273,2.561001 z"
         id="path1234" />
      <path
         d="m 68.047734,54.115424 h -3.549903 v -1.225561 q -0.02536,-1.225562 -0.126782,-1.470674 -0.101426,-0.295825 -0.481772,-0.295825 -0.329634,0 -0.43106,0.23666 -0.135234,0.287373 -0.135234,1.318535 v 6.558867 q 0,0.90438 0.135234,1.217109 0.101426,0.287373 0.464868,0.287373 0.380347,0 0.540938,-0.329633 0.135234,-0.354991 0.135234,-1.276275 v -1.631264 h -0.726884 v -2.070777 h 4.175361 v 7.336465 h -2.23982 l -0.346538,-0.988901 q -0.346538,0.633911 -0.895927,0.963544 -0.54939,0.321182 -1.318535,0.321182 -0.870572,0 -1.673526,-0.447964 -0.794502,-0.447964 -1.200205,-1.073423 -0.405703,-0.701528 -0.498677,-1.352343 -0.101425,-0.693076 -0.101425,-2.113037 v -4.065484 q 0,-1.960898 0.202851,-2.839921 0.23666,-0.90438 1.234014,-1.648169 0.346538,-0.253565 0.735337,-0.405703 0.397251,-0.160591 0.836762,-0.236661 0.447964,-0.08452 1.005806,-0.08452 1.563647,0 2.59481,0.642363 1.031162,0.642363 1.352343,1.521387 0.31273,0.912832 0.31273,2.561001 z"
         id="path1236" />
      <path
         d="m 79.597103,57.09058 q 0,1.039615 -0.01691,1.707334 -0.0169,0.66772 -0.06762,1.21711 -0.101426,0.845214 -0.600102,1.580551 -0.507129,0.684624 -1.386153,1.090327 -0.862119,0.380347 -2.028515,0.380347 -1.09878,0 -1.969351,-0.363442 -0.870571,-0.363443 -1.403056,-1.073423 -0.540938,-0.735337 -0.642364,-1.580552 -0.101425,-0.845215 -0.101425,-2.958252 v -2.332793 q 0,-2.070776 0.101425,-2.924443 0.07607,-0.836763 0.608555,-1.563647 0.490225,-0.693076 1.3777,-1.090327 0.862119,-0.380347 2.028516,-0.380347 1.048066,0 1.977802,0.346538 0.895928,0.371895 1.394605,1.090327 0.549389,0.718433 0.625459,1.563648 0.101426,0.845214 0.101426,2.958251 z m -3.541451,-4.479638 q 0,-0.980449 -0.109877,-1.234014 -0.101426,-0.253564 -0.43106,-0.253564 -0.287373,0 -0.414155,0.202851 -0.169043,0.228208 -0.169043,1.284727 v 6.389824 q 0,1.200205 0.11833,1.470674 0.07607,0.270468 0.431059,0.270468 0.363443,0 0.464869,-0.329633 0.109877,-0.295826 0.109877,-1.521387 z"
         id="path1238" />
      <path
         d="m 90.174472,49.094848 v 2.738496 h -2.113037 v 10.93708 h -3.549903 v -10.93708 h -2.113037 v -2.738496 z"
         id="path1240" />
    </g>
    <g
       aria-label="QUEER NATION"
       transform="scale(1.5368385,0.65068646)"
       id="text31078"
       style="font-size:8.19031px;line-height:1.25;font-family:Impact;-inkscape-font-specification:'Impact, Normal';font-variant-ligatures:none;letter-spacing:0.609759px;word-spacing:0px;stroke-width:0.558428">
      <path
         d="m 27.306435,91.333244 v 0.779839 h -1.271738 q -0.451907,0 -0.647866,-0.07598 -0.187961,-0.06399 -0.251948,-0.203958 -0.06799,-0.155968 -0.06799,-0.499897 -0.563884,-0.012 -0.979798,-0.303937 -0.415914,-0.279942 -0.551886,-0.719851 -0.127973,-0.419914 -0.127973,-1.31173 v -1.995588 q 0,-0.683859 0.07998,-1.007792 0.07199,-0.347928 0.319934,-0.655864 0.235951,-0.29194 0.63187,-0.459905 0.375922,-0.155968 0.851824,-0.155968 0.53189,0 1.007792,0.187961 0.439909,0.203958 0.651865,0.491898 0.223954,0.311936 0.279942,0.615873 0.06399,0.33993 0.06399,0.939806 v 2.107565 q 0,0.87582 -0.07998,1.171758 -0.08398,0.307937 -0.319934,0.4879 -0.231952,0.183962 -0.639868,0.279942 0.012,0.203958 0.09998,0.271944 0.06799,0.05599 0.367924,0.05599 z m -1.687652,-4.807008 q 0,-0.463904 -0.05199,-0.583879 -0.04799,-0.119975 -0.203958,-0.119975 -0.135972,0 -0.19596,0.09598 -0.07998,0.107978 -0.07998,0.607874 v 3.023376 q 0,0.567883 0.05599,0.695857 0.03599,0.127973 0.203958,0.127973 0.171965,0 0.219955,-0.155967 0.05199,-0.139971 0.05199,-0.719852 z"
         id="path1243" />
      <path
         d="m 32.359276,84.854582 v 4.331106 q 0,0.735848 -0.04799,1.031787 -0.03599,0.28794 -0.279942,0.607874 -0.223954,0.315935 -0.619872,0.4839 -0.403917,0.163966 -0.911812,0.163966 -0.571882,0 -1.023789,-0.195959 -0.439909,-0.187961 -0.659863,-0.499897 -0.227953,-0.315935 -0.263946,-0.647866 -0.03999,-0.379922 -0.03999,-1.443702 v -3.831209 h 1.679654 v 4.854997 q 0,0.43591 0.05599,0.543888 0.03599,0.119975 0.179963,0.119975 0.167965,0 0.203958,-0.127973 0.05199,-0.14797 0.05199,-0.615873 v -4.775014 z"
         id="path1245" />
      <path
         d="m 33.6249,84.86258 h 2.80742 v 1.295732 h -1.127767 v 1.227747 h 1.055782 v 1.227747 h -1.055782 v 1.423706 h 1.235745 v 1.295732 H 33.6249 Z"
         id="path1247" />
      <path
         d="m 37.641955,84.86258 h 2.807421 v 1.295732 h -1.127767 v 1.227747 h 1.055782 v 1.227747 h -1.055782 v 1.423706 h 1.235744 v 1.295732 h -2.915398 z"
         id="path1249" />
      <path
         d="m 41.659011,84.854582 h 1.195753 q 1.195753,0 1.611667,0.09998 0.415914,0.08398 0.687858,0.463904 0.263946,0.391919 0.263946,1.203752 0,0.755844 -0.191961,1.019789 -0.187961,0.259947 -0.731849,0.307937 0.507896,0.139971 0.671862,0.33593 0.179963,0.223954 0.211956,0.375923 0.02399,0.111977 0.03199,0.343929 0.008,0.231952 0.008,0.623871 v 1.703648 H 43.854556 V 89.17769 q 0,-0.523892 -0.08398,-0.635869 -0.08398,-0.123974 -0.431911,-0.123974 v 2.915398 h -1.679653 z m 1.679653,1.115769 v 1.439703 q 0.295939,0 0.399918,-0.07998 0.115976,-0.09198 0.115976,-0.507896 v -0.355926 q 0,-0.311936 -0.115976,-0.407916 -0.111977,-0.08798 -0.399918,-0.08798 z"
         id="path1251" />
      <path
         d="m 52.492545,84.854582 v 6.478662 H 51.01685 l -0.87582,-2.939393 v 2.939393 h -1.407709 v -6.478662 h 1.407709 l 0.943806,2.915398 v -2.915398 z"
         id="path1253" />
      <path
         d="m 56.689562,84.854582 0.959802,6.478662 h -1.719645 l -0.08398,-1.163759 h -0.603876 l -0.09998,1.163759 h -1.74364 l 0.859822,-6.478662 z m -0.891816,4.167139 q -0.06399,-0.543887 -0.115976,-1.055782 -0.04799,-0.515893 -0.139971,-1.659657 -0.151968,1.103772 -0.215955,1.667656 -0.06399,0.559884 -0.103979,1.047783 z"
         id="path1255" />
      <path
         d="m 61.942362,84.86258 v 1.295732 h -0.999793 v 5.174932 H 59.262915 V 86.158312 H 58.263122 V 84.86258 Z"
         id="path1257" />
      <path
         d="m 64.615695,84.854582 v 6.478662 h -1.679653 v -6.478662 z"
         id="path1259" />
      <path
         d="m 69.744522,88.645799 q 0,0.491898 -0.008,0.807833 -0.008,0.315935 -0.03199,0.575881 -0.04799,0.399918 -0.283941,0.747846 -0.239951,0.323933 -0.655865,0.515894 -0.407916,0.179962 -0.959802,0.179962 -0.519892,0 -0.931807,-0.171964 -0.411915,-0.171965 -0.663863,-0.507895 -0.255948,-0.347928 -0.303938,-0.747846 -0.04799,-0.399917 -0.04799,-1.399711 v -1.103772 q 0,-0.979798 0.04799,-1.383715 0.03599,-0.395918 0.287941,-0.739847 0.231952,-0.327932 0.651865,-0.515893 0.407916,-0.179963 0.959802,-0.179963 0.495898,0 0.935807,0.163966 0.423913,0.175964 0.659864,0.515893 0.259946,0.33993 0.295939,0.739848 0.04799,0.399917 0.04799,1.399711 z m -1.675654,-2.119563 q 0,-0.463904 -0.05199,-0.583879 -0.04799,-0.119975 -0.203957,-0.119975 -0.135972,0 -0.19596,0.09598 -0.07998,0.107978 -0.07998,0.607874 v 3.023376 q 0,0.567883 0.05599,0.695857 0.03599,0.127973 0.203958,0.127973 0.171964,0 0.219954,-0.155967 0.05199,-0.139971 0.05199,-0.719852 z"
         id="path1261" />
      <path
         d="m 74.745376,84.854582 v 6.478662 H 73.26968 l -0.875819,-2.939393 v 2.939393 h -1.407709 v -6.478662 h 1.407709 l 0.943805,2.915398 v -2.915398 z"
         id="path1263" />
    </g>
  </g>
</svg>
