<svg xmlns="http://www.w3.org/2000/svg" xmlns:xlink="http://www.w3.org/1999/xlink" viewBox="0 0 532.8 168.6"><g stroke="#fbc" fill="#fbc" paint-order="markers stroke fill"><g stroke-width="4.5" transform="rotate(13.8 663.2 -80.3)"><path d="m171 148.1-45.7 11.3-40.5 106 31.5-7.8 6.3-18.9 48.9-12 6.6 15.7 31.4-7.7zm-24.4 19.4 17.1 40.8-33.6 8.3z" fill-rule="evenodd"/><use xlink:href="#a"/><path d="M350.1 200v-99.6l32.1-7.9v76.7l53.1-13V179zm105.6-26v-21.5c39.3-19 69.3-44.6 69.3-66.9 0-8-7-11.9-15.8-9.7-10.3 2.5-15.9 7.1-18.6 21.4l-34.9 8.6c0-31.5 38.7-46 54.6-50 30.4-7.5 53.9-2 53.9 19.6 0 17.3-6.3 30.5-61.5 65.4l53.3-13v21.5z"/></g><g fill="#d66" stroke-width="9" transform="rotate(13.8 663.2 -80.3)"><path d="m158.4 140-45.7 11.2-40.6 106 31.5-7.7 6.4-19 48.8-12 6.6 15.8 31.4-7.8zm-24.5 19.3 17.2 40.8-33.7 8.3z" fill-rule="evenodd"/><use xlink:href="#a" x="-12.7" y="-8.2"/><path d="M337.5 191.9V92.3l32-8v76.8l53.2-13.1v23z"/><path d="M443 165.9v-21.6c39.4-18.9 69.3-44.5 69.3-66.8 0-8.1-7-12-15.8-9.8-10.3 2.6-15.8 7.1-18.5 21.4l-35 8.6c0-31.4 38.7-46 54.6-49.9 30.5-7.5 54-2 54 19.6 0 17.3-6.4 30.4-61.6 65.4l53.3-13.1v21.5z" fill="#f6b"/></g></g><g stroke="#fbc" fill="#fbc"><g transform="matrix(.99967 0 0 .94788 -111 -82.8)" stroke-width="2.8"><path d="m207.8 256 .8 6.6h8.5l-5.4-38.8H202l-22.7 38.8h8.6l3.7-6.5zm-.6-4.5h-13l10.6-18.4z" id="b"/><path d="M239.7 231.5H251l1.6-7.7h-31.1l-1.7 7.7h11.9l-6.7 31.1h8z"/><use xlink:href="#b" x="91.1"/></g><g transform="matrix(1.0671 0 0 .9465 24.8 -82.4)" stroke-width="2.7"><path d="M221.2 241.7h-12.1l-1.2 5.7h4.8c-1.3 6.4-4.9 8.8-9.7 8.8-5 0-8.2-4.4-8.2-10 0-3.7 1-7.8 2.8-10.7 2.4-4 5.1-6.5 9.4-6.5 4 0 6.5 2.2 7 5.1h7.1c0-6.7-5.4-11.3-13.6-11.3-6.2 0-11 2-15.1 7-4 5-5.7 12.7-5.7 18.9 0 7.5 3.8 15.2 12.7 15.2 4.6 0 10-4 13.8-8.2l-.7 7h4.5zm19.6-18h-8l-8.3 39H250l1.7-8h-17.5z"/><use xlink:href="#b" x="75.1"/><path d="M334.8 223.7h-7.6l-6 28.3-8.3-28.3h-9l-7.8 39h8.7l5.5-27.2 8 27.2h8.6zm36.2 11.8c0-9.5-5.8-12.3-12.4-12.4-15.3 0-22.8 9.6-22.8 27 0 9.7 6.8 13.7 14.7 13.8 9.7 0 16.5-5 18.9-14.1h-7.7c-1.5 4.9-5 7.3-10.1 7.3-4.2 0-7.1-4.2-7.2-8.8 0-4.5 1.2-10.4 3.6-14.2 2.5-3.9 4.6-5.5 9-5.5 3.8 0 6.8 3.5 6.5 6.9zm14 10.4h18.2l1.3-6.7h-18.2l1.9-8.8h19.7l1.4-6.6h-27.5l-8.1 38.8H402l1.4-6.6h-20.6z"/></g></g><defs><path id="a" d="M307.3 113.3c-5.6-.1-12.2.7-20.1 2.6L225.9 131v99.6l32.2-7.9v-35.2l27.7-6.8c39.2-9.6 48-31.2 48-44.8 0-10.7-6.5-22.3-26.5-22.6zm-19 23.6c6.7-.1 9.4 2.5 9.4 7.9 0 7.7-6.6 15.2-20.4 18.6l-19.2 4.8v-25l18.7-4.5c4.7-1.2 8.6-1.8 11.6-1.8z"/></defs></svg>
