<?xml version="1.0" encoding="UTF-8" standalone="no"?>
<!-- Created with Inkscape (http://www.inkscape.org/) -->

<svg
   version="1.1"
   id="svg824"
   width="530.59106"
   height="117.08282"
   viewBox="0 0 530.59106 117.08282"
   sodipodi:docname="apl2.svg"
   inkscape:version="1.1.2 (0a00cf5339, 2022-02-04)"
   xmlns:inkscape="http://www.inkscape.org/namespaces/inkscape"
   xmlns:sodipodi="http://sodipodi.sourceforge.net/DTD/sodipodi-0.dtd"
   xmlns="http://www.w3.org/2000/svg"
   xmlns:svg="http://www.w3.org/2000/svg">
  <defs
     id="defs828" />
  <sodipodi:namedview
     id="namedview826"
     pagecolor="#505050"
     bordercolor="#eeeeee"
     borderopacity="1"
     inkscape:pageshadow="0"
     inkscape:pageopacity="0"
     inkscape:pagecheckerboard="0"
     showgrid="false"
     inkscape:zoom="1.5813092"
     inkscape:cx="255.16831"
     inkscape:cy="55.017702"
     inkscape:window-width="1920"
     inkscape:window-height="1003"
     inkscape:window-x="0"
     inkscape:window-y="0"
     inkscape:window-maximized="1"
     inkscape:current-layer="layer1"
     showguides="true"
     inkscape:guide-bbox="true" />
  <g
     inkscape:groupmode="layer"
     id="layer1"
     inkscape:label="vector"
     style="display:inline"
     transform="translate(-45.590919,-90.099323)">
    <g
       id="g2932"
       style="display:inline;fill:#000001;fill-opacity:1;stroke:none;stroke-width:9;stroke-linejoin:miter;stroke-miterlimit:4;stroke-dasharray:none;stroke-opacity:1;paint-order:markers stroke fill"
       transform="rotate(13.83,274.59666,200.85269)">
      <path
         id="path2924"
         style="fill:#000001;fill-opacity:1;fill-rule:evenodd;stroke:none;stroke-width:9;stroke-linecap:round;stroke-linejoin:miter;stroke-miterlimit:4;stroke-dasharray:none;stroke-opacity:1;paint-order:markers stroke fill"
         d="m 158.39062,139.95117 -45.72656,11.25586 -40.525388,106.00391 31.485258,-7.75065 6.34766,-18.89062 48.82724,-12.01889 6.59961,15.70117 31.41211,-7.73242 z"
         sodipodi:nodetypes="ccccccccc" />
      <path
         id="path2926"
         style="opacity:1;fill:#000001;fill-opacity:1;stroke:none;stroke-width:9;stroke-linecap:round;stroke-linejoin:miter;stroke-miterlimit:4;stroke-dasharray:none;stroke-dashoffset:0;stroke-opacity:1;paint-order:markers stroke fill"
         d="m 294.67383,105.12891 c -5.59855,-0.0951 -12.26236,0.69338 -20.14844,2.63476 l -61.33594,15.09961 v 99.625 l 32.21875,-7.93164 v -35.17383 l 27.7793,-6.83789 c 39.19042,-9.64674 47.89258,-31.15128 47.89258,-44.79883 0,-10.66215 -6.41144,-22.27748 -26.40625,-22.61718 z"
         sodipodi:nodetypes="ssccccsss" />
      <path
         style="fill:#000001;fill-opacity:1;stroke:none;stroke-width:9;stroke-linecap:round;stroke-linejoin:miter;stroke-miterlimit:4;stroke-dasharray:none;stroke-opacity:1;paint-order:markers stroke fill"
         d="M 337.47752,191.89049 V 92.266401 l 32.06846,-7.894575 v 76.683844 l 53.12034,-13.0771 v 22.94024 z"
         id="path2928"
         sodipodi:nodetypes="ccccccc" />
      <path
         style="fill:#000001;fill-opacity:1;stroke:none;stroke-width:9;stroke-linecap:round;stroke-linejoin:miter;stroke-miterlimit:4;stroke-dasharray:none;stroke-opacity:1;paint-order:markers stroke fill"
         d="M 443.06856,165.89621 V 144.3391 c 39.28374,-18.91503 69.26661,-44.548617 69.26661,-66.864615 0,-8.07706 -6.99231,-11.923534 -15.83791,-9.745934 -10.30498,2.536869 -15.81637,7.119277 -18.53994,21.397376 l -34.88876,8.588872 c 0,-31.442677 38.64314,-46.006539 54.52431,-49.916147 30.48377,-7.504459 53.9485,-1.993523 53.9485,19.588775 0,17.271222 -6.35004,30.442848 -61.54218,65.398343 l 53.30088,-13.12155 v 21.55711 z"
         id="path2930"
         sodipodi:nodetypes="ccssccsscccc" />
    </g>
    <g
       id="g6739"
       style="display:inline;fill:#e23300;fill-opacity:1;stroke:#000000;stroke-width:9;stroke-linejoin:miter;stroke-miterlimit:4;stroke-dasharray:none;stroke-opacity:1;paint-order:markers stroke fill"
       transform="rotate(13.83,314.53405,152.72664)">
      <path
         id="path7062"
         style="fill:#e23300;fill-opacity:1;fill-rule:evenodd;stroke:#000000;stroke-width:9;stroke-linecap:round;stroke-linejoin:miter;stroke-miterlimit:4;stroke-dasharray:none;stroke-opacity:1;paint-order:markers stroke fill"
         d="m 158.39062,139.95117 -45.72656,11.25586 -40.525388,106.00391 31.485258,-7.75065 6.34766,-18.89062 48.82724,-12.01889 6.59961,15.70117 31.41211,-7.73242 z m -24.47822,19.38858 17.1501,40.80673 -33.6495,8.28256 z"
         sodipodi:nodetypes="ccccccccccccc" />
      <path
         id="path1013"
         style="opacity:1;fill:#e23300;fill-opacity:1;stroke:#000000;stroke-width:9;stroke-linecap:round;stroke-linejoin:miter;stroke-miterlimit:4;stroke-dasharray:none;stroke-dashoffset:0;stroke-opacity:1;paint-order:markers stroke fill"
         d="m 294.67383,105.12891 c -5.59855,-0.0951 -12.26236,0.69338 -20.14844,2.63476 l -61.33594,15.09961 v 99.625 l 32.21875,-7.93164 v -35.17383 c 0,0 0,0 27.7793,-6.83789 39.19042,-9.64674 47.89258,-31.15128 47.89258,-44.79883 0,-10.66215 -6.41144,-22.27748 -26.40625,-22.61718 z m -18.96485,23.57031 c 6.61102,-0.0724 9.28125,2.59228 9.28125,7.93164 0,7.76634 -6.52157,15.2524 -20.30859,18.64648 -13.78702,3.39407 -19.27344,4.74414 -19.27344,4.74414 v -24.9121 c 0,0 3.51518,-0.86562 18.72266,-4.60938 4.75234,-1.16993 8.57312,-1.76787 11.57812,-1.80078 z"
         sodipodi:nodetypes="ssccccssssssccss" />
      <path
         style="fill:#e23300;fill-opacity:1;stroke:#000000;stroke-width:9;stroke-linecap:round;stroke-linejoin:miter;stroke-miterlimit:4;stroke-dasharray:none;stroke-opacity:1;paint-order:markers stroke fill"
         d="M 337.47752,191.89049 V 92.266401 l 32.06846,-7.894575 v 76.683844 l 53.12034,-13.0771 v 22.94024 z"
         id="path3219"
         sodipodi:nodetypes="ccccccc" />
      <path
         style="fill:#ff8845;fill-opacity:1;stroke:#000000;stroke-width:9;stroke-linecap:round;stroke-linejoin:miter;stroke-miterlimit:4;stroke-dasharray:none;stroke-opacity:1;paint-order:markers stroke fill"
         d="M 443.06856,165.89621 V 144.3391 c 39.28374,-18.91503 69.26661,-44.548617 69.26661,-66.864615 0,-8.07706 -6.99231,-11.923534 -15.83791,-9.745934 -10.30498,2.536869 -15.81637,7.119277 -18.53994,21.397376 l -34.88876,8.588872 c 0,-31.442677 38.64314,-46.006539 54.52431,-49.916147 30.48377,-7.504459 53.9485,-1.993523 53.9485,19.588775 0,17.271222 -6.35004,30.442848 -61.54218,65.398343 l 53.30088,-13.12155 v 21.55711 z"
         id="path3221"
         sodipodi:nodetypes="ccssccsscccc" />
    </g>
  </g>
</svg>
